<svg xmlns:dc="http://purl.org/dc/elements/1.1/" xmlns:cc="http://creativecommons.org/ns#" xmlns:rdf="http://www.w3.org/1999/02/22-rdf-syntax-ns#" xmlns:svg="http://www.w3.org/2000/svg" xmlns="http://www.w3.org/2000/svg" xmlns:xlink="http://www.w3.org/1999/xlink" id="svg393172" viewBox="0 0 450 70" height="70px" width="400px" version="1.1">
<g id="logo-group">
    <image xlink:href="" id="container" x="272" y="144" width="480" height="480" transform="translate(0 0)" style="display: none;"/>
    <g id="logo-center" transform="translate(-290 -350)">
      <image xlink:href="" id="icon_container" x="0" y="0" style="display: none;"/>
      <g id="slogan" style="font-style:normal;font-weight:300;font-size:32px;line-height:1;font-family:Overpass;font-variant-ligatures:none;text-align:center;text-anchor:middle" transform="translate(0 0)"/>
      <g id="title" style="font-style:normal;font-weight:normal;font-size:72px;line-height:1;font-family:'Brandmark Sans 13';font-variant-ligatures:normal;text-align:center;text-anchor:middle" transform="translate(0 0)">
        <path id="path393181" style="font-style:normal;font-weight:normal;font-size:72px;line-height:1;font-family:'Brandmark Sans 13';font-variant-ligatures:normal;text-align:center;text-anchor:middle" d="m 395.24862,-32.256 c 0,-6.192 0.216,-10.44 2.664,-15.264 0.144,-0.216 0.288,-0.504 0.432,-0.792 l -3.744,-1.872 -3.672,-2.016 c -0.36,0.648 -0.72,1.224 -1.008,1.872 -10.94399,21.456 -27.504,41.904 -34.056,41.904 V 0 c 9.79201,0 22.104,-15.048 31.32,-29.016 0.93601,4.968 4.03201,8.424 6.624,11.232 2.304,2.52 3.672,4.104 3.672,5.76 0,3.024 -2.808,4.824 -7.56,4.824 -6.48,0 -10.94399,-5.256 -11.016,-5.328 l -6.48,5.4 c 0.288,0.36 6.98401,8.352 17.496,8.352 11.016,0 15.984,-6.624 15.984,-13.248 0,-5.04 -3.096,-8.424 -5.90399,-11.448 -2.52001,-2.808 -4.75201,-5.184 -4.75201,-8.784 z" stroke-width="0" stroke-linejoin="miter" stroke-miterlimit="2" fill="#ec5a6b" stroke="#ec5a6b" transform="translate(0 318.19636) translate(290.10752204999994 27.554000000000002) scale(1.43) translate(-355.86462 52.2)"/>
        <path id="path393183" style="font-style:normal;font-weight:normal;font-size:72px;line-height:1;font-family:'Brandmark Sans 13';font-variant-ligatures:normal;text-align:center;text-anchor:middle" d="m 420.3935,-15.84 h 7.632 v -12.816 l 12.096,-18.576 -6.408,-4.176 -9.504,14.616 -9.504,-14.616 -6.408,4.176 12.096,18.576 z" stroke-width="0" stroke-linejoin="miter" stroke-miterlimit="2" fill="#d85e6c" stroke="#d85e6c" transform="translate(0 318.19636) translate(365.0865404499999 28.68656) scale(1.43) translate(-408.2975 51.408)"/>
        <path id="path393185" style="font-style:normal;font-weight:normal;font-size:72px;line-height:1;font-family:'Brandmark Sans 13';font-variant-ligatures:normal;text-align:center;text-anchor:middle" d="m 487.58188,-50.184 h -8.42401 v 37.44 l -22.824,-37.44 h -10.512 V 0 h 8.424 V -37.44 L 477.06988,0 h 10.512 z" stroke-width="0" stroke-linejoin="miter" stroke-miterlimit="2" fill="#c4616d" stroke="#c4616d" transform="translate(0 318.19636) translate(418.7463895499999 30.436880000000016) scale(1.43) translate(-445.82187 50.184)"/>
        <path id="path393187" style="font-style:normal;font-weight:normal;font-size:72px;line-height:1;font-family:'Brandmark Sans 13';font-variant-ligatures:normal;text-align:center;text-anchor:middle" d="m 536.79162,-1.296 -15.91199,-48.888 h -10.58401 l -15.912,48.888 7.99201,2.592 2.44799,-7.56 h 21.52801 l 2.44799,7.56 z m -29.232,-13.392 8.064,-24.624 7.99201,24.624 z" stroke-width="0" stroke-linejoin="miter" stroke-miterlimit="2" fill="#b1656e" stroke="#b1656e" transform="translate(0 318.19636) translate(488.1896920499999 30.436880000000016) scale(1.43) translate(-494.38362 50.184)"/>
        <path id="path393189" style="font-style:normal;font-weight:normal;font-size:72px;line-height:1;font-family:'Brandmark Sans 13';font-variant-ligatures:normal;text-align:center;text-anchor:middle" d="M 563.64088,-50.184 H 543.69687 V 0 h 8.424 v -14.76 h 11.08801 c 7.19999,0 11.52,-3.024 13.96799,-5.472 3.024,-3.168 4.68,-7.488 4.68,-12.096 0,-11.592 -9.35999,-17.856 -18.21599,-17.856 z m -11.52001,27 V -41.76 h 11.52001 c 6.76799,0 9.79199,4.896 9.79199,9.432 0,2.448 -0.79199,4.68 -2.376,6.264 -1.79999,1.872 -4.46399,2.88 -7.84799,2.88 z" stroke-width="0" stroke-linejoin="miter" stroke-miterlimit="2" fill="#9d696f" stroke="#9d696f" transform="translate(0 318.19636) translate(558.70763955 30.436880000000016) scale(1.43) translate(-543.69687 50.184)"/>
        <path id="path393191" style="font-style:normal;font-weight:normal;font-size:72px;line-height:1;font-family:'Brandmark Sans 13';font-variant-ligatures:normal;text-align:center;text-anchor:middle" d="m 608.39787,-30.384 c -8.20799,-2.016 -10.72799,-3.24 -10.72799,-6.84 0,-5.112 6.91199,-5.544 9,-5.544 5.544,0 10.43999,1.296 13.39199,3.528 l 5.112,-6.696 c -6.048,-4.536 -14.184,-5.256 -18.50399,-5.256 -12.024,0 -17.42401,6.984 -17.42401,13.968 0,10.656 9.864,13.176 17.06401,15.048 8.568,2.16 12.096,3.6 12.096,8.784 0,1.44 -0.36,3.528 -3.312,4.968 -5.25601,2.52 -15.76801,1.296 -22.96801,-4.608 l -5.328,6.552 c 6.192,4.968 14.328,7.704 21.744,7.704 3.67201,0 7.20001,-0.648 10.15201,-2.088 5.184,-2.448 8.136,-6.984 8.136,-12.528 0,-12.24 -10.65601,-14.976 -18.43201,-16.992 z" stroke-width="0" stroke-linejoin="miter" stroke-miterlimit="2" fill="#896c70" stroke="#896c70" transform="translate(0 318.19636) translate(620.34206955 28.995440000000002) scale(1.43) translate(-586.79787 51.192)"/>
        <path id="path393193" style="font-style:normal;font-weight:normal;font-size:72px;line-height:1;font-family:'Brandmark Sans 13';font-variant-ligatures:normal;text-align:center;text-anchor:middle" d="m 666.20375,-50.184 h -30.96 V 0 h 30.96 v -8.424 h -22.536 v -12.96 h 16.704 v -8.424 h -16.704 V -41.76 h 22.536 z" stroke-width="0" stroke-linejoin="miter" stroke-miterlimit="2" fill="#757071" stroke="#757071" transform="translate(0 318.19636) translate(689.61967795 30.436880000000016) scale(1.43) translate(-635.24375 50.184)"/>
      </g>
      <image xlink:href="" id="icon" x="0" y="0" style="display: none;"/>
    </g>
  </g>
</svg>